<?xml version="1.0" encoding="UTF-8" standalone="no"?>
<!DOCTYPE svg PUBLIC "-//W3C//DTD SVG 1.1//EN" "http://www.w3.org/Graphics/SVG/1.1/DTD/svg11.dtd">
<svg width="100%" height="100%" viewBox="0 0 600 600" version="1.1" xmlns="http://www.w3.org/2000/svg" xmlns:xlink="http://www.w3.org/1999/xlink" xml:space="preserve" xmlns:serif="http://www.serif.com/" style="fill-rule:evenodd;clip-rule:evenodd;stroke-linejoin:round;stroke-miterlimit:1.5;">
    <g transform="matrix(1,0,0,1,-5,4.999)">
        <g transform="matrix(1.03214,0,0,1,-18.6429,-2.84217e-14)">
            <path fill="white" d="M300.905,20.001C455.038,20.502 580,145.773 580,300C580,454.536 454.536,580 300,580L300,540C432.46,540 540,432.46 540,300C540,167.54 432.46,60 300,60L300.905,20.001Z"/>
        </g>
        <g transform="matrix(0.970909,0,0,1,0.96,1)">
            <path d="M308,39L33,39" style="stroke:white;stroke-width:40px;"/>
        </g>
        <g transform="matrix(1,0,0,1.00199,1,-0.0776123)">
            <path d="M52,39L52,542" style="stroke:white;stroke-width:40px;"/>
        </g>
        <path d="M300,560L33,560" style="stroke:white;stroke-width:40px;"/>
        <g transform="matrix(1,0,0,1,-4,-0.5)">
            <path fill="white" d="M152,323L152.004,323C152.592,397.44 218.145,457 298,457C377.855,457 443.408,397.44 443.996,323L483.997,323C483.419,418.746 400.661,497 298,497C194.978,497 112,418.195 112,322C112,281.184 126.939,243.5 152,213.647L152,323Z"/>
        </g>
        <g transform="matrix(1,0,0,1,-13,-0.5)">
            <path d="M141,315L142,103" style="stroke:white;stroke-width:40px;"/>
        </g>
        <g transform="matrix(0.94319,0,0,1,-4.98983,-0.5)">
            <path d="M141,239L492.997,239" style="stroke:white;stroke-width:41.15px;"/>
        </g>
    </g>
</svg>
